<svg xmlns="http://www.w3.org/2000/svg" viewBox="0 0 48 48">
  <rect width="48" height="48" rx="11" fill="#eef3f7"/>
  <path fill="#34607f" d="M24 7c-3.7 0-5.5 1.7-8.6 1.7C12 8.7 9 11.2 9 16.3c0 3.9 1.2 7 2.3 10.9.9 2.9 1.2 6 1.8 9 .4 2.5 1.1 5 3 5 2 0 2.3-2.6 2.9-5.4.4-2.3.7-4.9 2.3-4.9s1.9 2.6 2.3 4.9c.5 2.8.9 5.4 2.9 5.4 1.9 0 2.6-2.5 3-5 .5-3 .9-6.1 1.8-9C34.8 23.3 36 20.2 36 16.3c0-5.1-3-7.6-6.4-7.6-3 0-4.9-1.7-8.6-1.7Z" transform="translate(-1.5 0)"/>
  <path fill="#fff" opacity=".88" d="M17 14.6c1.6-1 3.5-1.2 4.8-.3.5.3.4 1-.1 1.2-1.1.4-2.3.6-3.3 1.3-.9.6-1.5 1.6-1.8 2.5-.2.5-1 .4-1.1-.2-.2-1.6.2-3.4 1.5-4.5Z" transform="translate(-1.5 0)"/>
</svg>
