<svg xmlns="http://www.w3.org/2000/svg" viewBox="0 0 48 48" role="img" aria-label="Clínica Dental Sagarzazu">
  <defs>
    <linearGradient id="sgzTooth" x1="0" y1="0" x2="0" y2="1">
      <stop offset="0" stop-color="#5b88ad"/>
      <stop offset="1" stop-color="#34607f"/>
    </linearGradient>
  </defs>
  <path fill="url(#sgzTooth)" d="M24 4.5c-4.2 0-6.3 2-9.8 2C10.3 6.5 7 9.4 7 15.2c0 4.4 1.3 8 2.6 12.4 1 3.3 1.4 6.8 2 10.2.5 2.9 1.3 5.7 3.4 5.7 2.3 0 2.7-3 3.3-6.2.5-2.6.8-5.6 2.7-5.6s2.2 3 2.7 5.6c.6 3.2 1 6.2 3.3 6.2 2.1 0 2.9-2.8 3.4-5.7.6-3.4 1-6.9 2-10.2C39.7 23.2 41 19.6 41 15.2c0-5.8-3.3-8.7-7.2-8.7-3.5 0-5.6-2-9.8-2Z"/>
  <path fill="#fff" opacity=".9" d="M16.5 12.2c1.8-1.1 4-1.4 5.5-.4.5.3.5 1.1-.1 1.3-1.2.5-2.6.7-3.8 1.5-1 .7-1.7 1.8-2.1 2.9-.2.6-1.1.5-1.2-.2-.3-1.9.2-4 1.7-5.1Z"/>
</svg>
